<svg version="1" xmlns="https://www.w3.org/2000/svg" width="1024" height="1024" viewBox="0 0 736.000000 736.000000" fill="#3f72af"><path d="M436.1 282.7c-40.9 92.3-74.6 168.1-75 168.5-.3.4-32.5-71.3-71.5-159.3-39-87.9-71.2-159.9-71.5-159.9C217.6 132 2 616.9.2 622.1c-.2.6 53.9.8 142.4.7l142.8-.3 37.5-84.7c20.7-46.6 37.9-84.4 38.2-84 .4.4 17.5 38.6 38 85l37.3 84.2h149.9c142.3 0 149.9-.1 149.4-1.8-.2-.9-39.7-90.1-87.7-198.2-47.9-108.1-98.3-221.6-111.8-252.2-13.6-30.7-24.9-55.8-25.2-55.8-.3 0-34 75.5-74.9 167.7z"/></svg>