<!--
Fork Awesome 1.1.7
License - https://forkaweso.me/Fork-Awesome/license
Copyright 2018 Dave Gandy & Fork Awesome
Permission is hereby granted, free of charge, to any person obtaining a copy of this software and associated documentation files (the "Software"), to deal in the Software without restriction, including without limitation the rights to use, copy, modify, merge, publish, distribute, sublicense, and/or sell copies of the Software, and to permit persons to whom the Software is furnished to do so, subject to the following conditions:
The above copyright notice and this permission notice shall be included in all copies or substantial portions of the Software.
THE SOFTWARE IS PROVIDED "AS IS", WITHOUT WARRANTY OF ANY KIND, EXPRESS OR IMPLIED, INCLUDING BUT NOT LIMITED TO THE WARRANTIES OF MERCHANTABILITY, FITNESS FOR A PARTICULAR PURPOSE AND NONINFRINGEMENT. IN NO EVENT SHALL THE AUTHORS OR COPYRIGHT HOLDERS BE LIABLE FOR ANY CLAIM, DAMAGES OR OTHER LIABILITY, WHETHER IN AN ACTION OF CONTRACT, TORT OR OTHERWISE, ARISING FROM, OUT OF OR IN CONNECTION WITH THE SOFTWARE OR THE USE OR OTHER DEALINGS IN THE SOFTWARE.
-->
<svg id="share" viewBox="0 50 1635 1635" xmlns="http://www.w3.org/2000/svg">
    <path d="M1216 1024c177 0 320 143 320 320s-143 320-320 320-320-143-320-320c0-11 1-23 2-34l-360-180c-57 53-134 86-218 86-177 0-320-143-320-320s143-320 320-320c84 0 161 33 218 86l360-180c-1-11-2-23-2-34 0-177 143-320 320-320s320 143 320 320-143 320-320 320c-84 0-161-33-218-86L638 862c1 11 2 23 2 34s-1 23-2 34l360 180c57-53 134-86 218-86z" fill="#3f72af"/>
</svg>
