<?xml version="1.0" standalone="no"?>
<!DOCTYPE svg PUBLIC "-//W3C//DTD SVG 20010904//EN"
 "http://www.w3.org/TR/2001/REC-SVG-20010904/DTD/svg10.dtd">
<svg version="1.0" xmlns="http://www.w3.org/2000/svg"
 width="800.000000pt" height="800.000000pt" viewBox="0 0 800.000000 800.000000"
 preserveAspectRatio="xMidYMid meet">
<metadata>
Created by potrace 1.11, written by Peter Selinger 2001-2013
</metadata>
<g transform="translate(0.000000,800.000000) scale(0.100000,-0.100000)"
fill="#000000" stroke="none">
<path d="M20 7994 c0 -3 223 -228 495 -500 l494 -494 250 250 250 250 240
-240 c132 -132 242 -240 245 -240 3 0 6 221 6 490 l0 490 -990 0 c-545 0 -990
-3 -990 -6z"/>
<path d="M2020 7994 c0 -3 224 -229 499 -504 l498 -498 -496 -496 -496 -496
1992 0 1992 0 496 496 495 495 -250 250 -250 250 250 250 c137 137 250 252
250 254 0 3 -225 5 -500 5 -393 0 -500 -3 -500 -12 0 -7 -223 -236 -496 -509
l-496 -496 -508 508 -509 509 -985 0 c-542 0 -986 -3 -986 -6z"/>
<path d="M7506 7481 l-489 -489 250 -250 250 -250 -246 -246 -246 -246 488 0
487 0 0 985 c0 542 -1 985 -3 985 -1 0 -222 -220 -491 -489z"/>
<path d="M0 6494 l0 -485 509 -509 508 -508 -496 -496 c-273 -273 -502 -496
-509 -496 -9 0 -12 -410 -12 -2000 0 -1100 2 -2000 5 -2000 2 0 227 223 500
496 l495 495 -250 250 -250 250 250 250 c137 137 250 252 250 254 0 3 -220 5
-490 5 -270 0 -490 3 -490 6 0 3 223 228 495 500 l494 494 490 -490 c269 -269
492 -490 495 -490 3 0 6 893 6 1985 l0 1986 -496 496 -496 496 -250 -250 -250
-250 -248 248 c-137 137 -251 249 -254 249 -3 0 -6 -219 -6 -486z"/>
<path d="M6000 3990 l0 -1990 -2000 0 c-1590 0 -2000 -3 -2000 -12 0 -7 -221
-234 -492 -505 l-491 -491 250 -250 250 -250 -246 -246 -246 -246 492 0 492 0
500 500 500 500 500 -500 500 -500 985 0 c542 0 986 3 986 6 0 3 -221 226
-490 495 l-490 490 504 505 505 504 500 -500 500 -500 250 250 250 250 240
-240 c132 -132 242 -240 245 -240 3 0 6 219 6 486 l0 485 -500 500 -500 500
500 500 500 500 0 992 0 992 -496 -496 -496 -496 -498 498 c-275 275 -501 499
-504 499 -3 0 -6 -895 -6 -1990z"/>
<path d="M2500 4990 l0 -510 508 2 507 3 3 508 2 507 -510 0 -510 0 0 -510z"/>
<path d="M4500 4990 l0 -510 508 2 507 3 3 508 2 507 -510 0 -510 0 0 -510z"/>
<path d="M2500 2990 l0 -510 508 2 507 3 3 508 2 507 -510 0 -510 0 0 -510z"/>
<path d="M4500 2990 l0 -510 508 2 507 3 3 508 2 507 -510 0 -510 0 0 -510z"/>
<path d="M6000 490 l0 -490 990 0 c545 0 990 2 990 6 0 3 -219 224 -486 491
l-486 486 -250 -250 -250 -250 -248 248 c-137 137 -251 249 -254 249 -3 0 -6
-220 -6 -490z"/>
</g>
</svg>
